<svg width="12" height="12" viewBox="0 0 12 12" fill="none" xmlns="http://www.w3.org/2000/svg">
<path d="M6 0C2.68548 0 0 2.68548 0 6C0 9.31452 2.68548 12 6 12C9.31452 12 12 9.31452 12 6C12 2.68548 9.31452 0 6 0ZM6.58064 9.09677V9.48387C6.58064 9.69677 6.40645 9.87097 6.19355 9.87097H5.80645C5.59355 9.87097 5.41935 9.69677 5.41935 9.48387V9.09193C5.02016 9.07742 4.63065 8.95161 4.29677 8.72661C4.08629 8.58387 4.05484 8.28871 4.24113 8.11694L4.53145 7.84355C4.6621 7.72016 4.85323 7.7129 5.00806 7.80484C5.15565 7.89194 5.32016 7.93548 5.48952 7.93548H6.57823C6.85161 7.93548 7.07419 7.68145 7.07419 7.36935C7.07419 7.1129 6.92177 6.8879 6.70645 6.82016L4.95968 6.29032C4.25806 6.07742 3.76935 5.39516 3.76935 4.63064C3.76935 3.67984 4.50968 2.90565 5.41935 2.90323V2.51613C5.41935 2.30323 5.59355 2.12903 5.80645 2.12903H6.19355C6.40645 2.12903 6.58064 2.30323 6.58064 2.51613V2.90806C6.97984 2.92258 7.36935 3.04839 7.70323 3.27339C7.91371 3.41613 7.94516 3.71129 7.75887 3.88306L7.46855 4.15645C7.3379 4.27984 7.14677 4.2871 6.99194 4.19516C6.84435 4.10806 6.67984 4.06452 6.51048 4.06452H5.42177C5.14839 4.06452 4.92581 4.31855 4.92581 4.63064C4.92581 4.8871 5.07823 5.1121 5.29355 5.17984L7.03548 5.70968C7.7371 5.92258 8.22581 6.60484 8.22581 7.36935C8.23064 8.32016 7.49032 9.09194 6.58064 9.09677Z" fill="#5C5C5C"/>
</svg>
