<svg width="12" height="12" viewBox="0 0 12 12" fill="none" xmlns="http://www.w3.org/2000/svg">
<path fill-rule="evenodd" clip-rule="evenodd" d="M11 6.522C11 6.24 10.7571 6.012 10.4286 5.934C9.52143 5.724 8.85714 5.028 8.85714 4.2V1.2H9.57143C9.96429 1.2 10.2857 0.93 10.2857 0.6C10.2857 0.27 9.96429 0 9.57143 0H2.42857C2.03571 0 1.71429 0.27 1.71429 0.6C1.71429 0.93 2.03571 1.2 2.42857 1.2H3.14286V4.2C3.14286 5.028 2.47857 5.724 1.57143 5.934C1.24286 6.012 1 6.24 1 6.522V6.6C1 6.93 1.32143 7.2 1.71429 7.2H5.27143L5.28571 11.4C5.28571 11.73 5.60714 12 6 12C6.39286 12 6.71429 11.73 6.71429 11.4L6.7 7.2H10.2857C10.6786 7.2 11 6.93 11 6.6V6.522Z" fill="#5C5C5C"/>
</svg>
