<svg width="12" height="12" viewBox="0 0 12 12" fill="none" xmlns="http://www.w3.org/2000/svg">
<path d="M7.42857 1.2V4.2C7.42857 4.872 7.69286 5.496 8.14286 6H3.85714C4.32143 5.484 4.57143 4.86 4.57143 4.2V1.2H7.42857ZM9.57143 0H2.42857C2.03571 0 1.71429 0.27 1.71429 0.6C1.71429 0.93 2.03571 1.2 2.42857 1.2H3.14286V4.2C3.14286 5.02259 2.48999 5.71422 1.59468 5.93012C1.27255 6.0078 1 6.26863 1 6.6C1 6.93137 1.26863 7.2 1.6 7.2H5.26429V11.4C5.26429 11.7314 5.53292 12 5.86429 12H6.09286C6.42423 12 6.69286 11.7314 6.69286 11.4V7.2H10.4C10.7314 7.2 11 6.93137 11 6.6C11 6.26863 10.7275 6.0078 10.4053 5.93012C9.51001 5.71422 8.85714 5.02259 8.85714 4.2V1.2H9.57143C9.96429 1.2 10.2857 0.93 10.2857 0.6C10.2857 0.27 9.96429 0 9.57143 0Z" fill="#5C5C5C"/>
</svg>
