<svg width="12" height="12" viewBox="0 0 12 12" fill="none" xmlns="http://www.w3.org/2000/svg">
<path fill-rule="evenodd" clip-rule="evenodd" d="M1 5.16667C1 2.87587 2.85706 1 5.14786 1C7.43865 1 9.29571 2.87587 9.29571 5.16667C9.29571 7.45747 7.43865 9.33333 5.14786 9.33333C2.85706 9.33333 1 7.45747 1 5.16667ZM5.14786 7.66667C3.77338 7.66667 2.65914 6.54115 2.65914 5.16667C2.65914 3.79219 3.77338 2.66667 5.14786 2.66667C6.52233 2.66667 7.63657 3.79219 7.63657 5.16667C7.63657 6.54115 6.52233 7.66667 5.14786 7.66667Z" fill="#5C5C5C"/>
<path d="M6.98299 8.29657L9.33942 10.485C9.64872 10.7723 10.13 10.7629 10.4278 10.4637C10.7405 10.1495 10.7305 9.63863 10.4057 9.33694L8.08909 7.18546L6.98299 8.29657Z" fill="#5C5C5C"/>
</svg>
