<svg width="12" height="12" viewBox="0 0 12 12" fill="none" xmlns="http://www.w3.org/2000/svg">
<g clip-path="url(#clip0_7_741)">
<path d="M6 3.75C4.76016 3.75 3.75 4.76016 3.75 6C3.75 7.23984 4.76016 8.25 6 8.25C7.23984 8.25 8.25 7.23984 8.25 6C8.25 4.76016 7.23984 3.75 6 3.75ZM11.775 5.63672L9.55547 4.52812L10.3406 2.175C10.4461 1.85625 10.1438 1.55391 9.82734 1.66172L7.47422 2.44688L6.36328 0.225C6.21328 -0.075 5.78672 -0.075 5.63672 0.225L4.52813 2.44453L2.17266 1.65938C1.85391 1.55391 1.55156 1.85625 1.65938 2.17266L2.44453 4.52578L0.225 5.63672C-0.075 5.78672 -0.075 6.21328 0.225 6.36328L2.44453 7.47187L1.65938 9.82734C1.55391 10.1461 1.85625 10.4484 2.17266 10.3406L4.52578 9.55547L5.63438 11.775C5.78438 12.075 6.21094 12.075 6.36094 11.775L7.46953 9.55547L9.82266 10.3406C10.1414 10.4461 10.4438 10.1437 10.3359 9.82734L9.55078 7.47422L11.7703 6.36563C12.075 6.21328 12.075 5.78672 11.775 5.63672ZM8.12109 8.12109C6.95156 9.29062 5.04844 9.29062 3.87891 8.12109C2.70938 6.95156 2.70938 5.04844 3.87891 3.87891C5.04844 2.70937 6.95156 2.70937 8.12109 3.87891C9.29063 5.04844 9.29063 6.95156 8.12109 8.12109Z" fill="#5C5C5C"/>
</g>
<defs>
<clipPath id="clip0_7_741">
<rect width="12" height="12" fill="white"/>
</clipPath>
</defs>
</svg>
